<?xml version="1.0" encoding="UTF-8"?>
<svg id="Layer_1" data-name="Layer 1" xmlns="http://www.w3.org/2000/svg" viewBox="0 0 566.82 558.02">
  <defs>
    <style>
      .cls-1 {
        fill: #586db3;
      }

      .cls-1, .cls-2 {
        stroke: #5769b1;
        stroke-miterlimit: 10;
      }

      .cls-2 {
        fill: #fff;
      }
    </style>
  </defs>
  <path class="cls-1" d="M268.6.89c241.62-12.3,389.66,265.93,233.39,455.39-130.85,158.64-390.69,125.4-476.13-61.59C-56.86,213.66,72.93,10.86,268.6.89ZM413.5,44.93l-146.65-.03c-49.7,1.88-110.22,20.69-153.1,45.65-4.05,2.36-16.65,9.49-17.91,13.59l-.37,174.45c1.07,6.41.83,12.93,1.63,19.37,9.64,77.83,71.13,139.6,131.53,183.47.13-4.86,6.95-22.14,5.27-25.5-27.38-21.4-53.9-45.77-74.96-73.56-23.81-31.43-39.4-66.51-39.47-106.78l.18-160.39c.43-1.43,5.88-4.18,7.6-5.15,43.89-24.65,96.59-37.88,146.35-44.15l127.41.06,12.5-21.03ZM299.5,245.17h101.25l-165.44,239.95-.31,1.54c12.64,6.85,24.56,15.57,37.48,22.15,9.23,4.7,8.52,5.52,18.03.75,83.14-41.63,174.85-127.2,179.98-225.77l-.15-179.83c-.95-4.25-12.65-10.34-16.59-12.66-13.88-8.19-28.69-15.01-43.7-20.88l-110.55,174.76ZM276.25,295.42h-102.38c-.32,0-2.17,2.01-1.86-.36l101.23-202.52c-9.28-.06-19.39,1.85-28.65,3.6-34.39,6.49-68.35,17.85-99.47,33.65l-.15,150.29c1.81,56.13,43.77,103.85,84.02,138.73,4.02,3.49,8.35,6.65,12.4,10.11l34.87-133.49Z"/>
  <path class="cls-2" d="M300.28,245.17l110.55-174.76c15.02,5.88,29.83,12.7,43.7,20.88,3.94,2.33,15.64,8.42,16.59,12.66l.15,179.83c-5.13,98.58-96.84,184.14-179.98,225.77-9.52,4.77-8.81,3.95-18.03-.75-12.93-6.58-24.84-15.3-37.48-22.15l.31-1.54,165.44-239.95h-101.25ZM420.91,128.28c.37,12.55.04,25.2.08,37.8.09,26.14.16,52.67,0,78.69-.12,19.82,1.87,42.14-2.44,61.31-9.72,43.21-48.03,85.36-81.17,113.08-17.02,14.24-35.41,26.96-54.12,38.87l-5.24-2.75c-.91-.18-1.22.51-1.75,1.01-5.02,4.73-9.5,13.48-14.23,18.77.03,1.13,18.02,10.95,19.49,11.31,2.27.56,5.15-1.45,7.25-2.56,65.89-34.84,153.15-114.82,157.78-193.97l-.05-174.77c-.05-1.12-.73-1.6-1.51-2.24-2.05-1.69-11.11-5.99-14.19-7.56-3.13-1.59-13.2-6.89-15.78-7.53-.88-.22-1.3-.49-2.25.02-1.11.6-14.5,19.74-14.21,20.97l22.34,9.56Z"/>
  <path class="cls-2" d="M276.25,295.42l-34.87,133.49c-4.05-3.46-8.37-6.62-12.4-10.11-40.25-34.88-82.21-82.6-84.02-138.73l.15-150.29c31.12-15.8,65.08-27.16,99.47-33.65,9.26-1.75,19.37-3.66,28.65-3.6l-101.23,202.52c-.31,2.37,1.54.36,1.86.36h102.38Z"/>
  <path class="cls-2" d="M413.5,44.93l-12.5,21.03-127.41-.06c-49.76,6.27-102.46,19.5-146.35,44.15-1.72.97-7.17,3.72-7.6,5.15l-.18,160.39c.07,40.27,15.66,75.35,39.47,106.78,21.05,27.79,47.58,52.16,74.96,73.56,1.69,3.36-5.14,20.64-5.27,25.5-60.4-43.87-121.89-105.64-131.53-183.47-.8-6.44-.55-12.96-1.63-19.37l.37-174.45c1.27-4.1,13.86-11.23,17.91-13.59,42.88-24.96,103.4-43.77,153.1-45.65l146.65.03Z"/>
  <path class="cls-1" d="M420.14,128.28l-22.34-9.56c-.29-1.23,13.09-20.37,14.21-20.97.95-.51,1.36-.24,2.25-.02,2.58.64,12.66,5.94,15.78,7.53,3.09,1.57,12.14,5.87,14.19,7.56.78.64,1.45,1.12,1.51,2.24l.05,174.77c-4.63,79.15-91.89,159.13-157.78,193.97-2.1,1.11-4.98,3.12-7.25,2.56-1.47-.36-19.46-10.18-19.49-11.31,4.74-5.29,9.21-14.04,14.23-18.77.53-.5.84-1.19,1.75-1.01l5.24,2.75c18.71-11.91,37.09-24.63,54.12-38.87,33.14-27.71,71.45-69.87,81.17-113.08,4.31-19.17,2.32-41.49,2.44-61.31.16-26.02.09-52.55,0-78.69-.04-12.6.29-25.24-.08-37.8Z"/>
</svg>